<svg width="39" height="38" viewBox="0 0 39 38" fill="none" xmlns="http://www.w3.org/2000/svg">
<path d="M3.72164 16.6636C3.56721 16.0877 3.56719 15.4814 3.72158 14.9056C3.87597 14.3297 4.17933 13.8046 4.60117 13.3831L13.3913 4.59848C13.8131 4.17691 14.3385 3.87374 14.9147 3.71945C15.4909 3.56515 16.0976 3.56517 16.6738 3.71951L24.8992 5.9221C24.9848 4.79597 25.3771 3.71468 26.0337 2.79539L16.1268 0.142793C15.4157 -0.0476018 14.667 -0.0475979 13.956 0.142806C13.2449 0.33321 12.5965 0.707307 12.0759 1.2275L1.22827 12.0683C0.707747 12.5886 0.333418 13.2366 0.142896 13.9472C-0.0476277 14.6578 -0.0476318 15.4061 0.142883 16.1167L2.89925 26.3971C3.80031 25.7094 4.87309 25.2823 6.00049 25.1625L3.72164 16.6636Z" fill="url(#paint0_linear_4_850)"/>
<path d="M31.9476 12.5534L34.3026 21.3363C34.4571 21.9123 34.4569 22.5186 34.3026 23.0943C34.1481 23.6702 33.8447 24.1953 33.4229 24.6168L24.6327 33.4017C24.2109 33.8232 23.6855 34.1262 23.1092 34.2806C22.5331 34.4348 21.9263 34.4348 21.3502 34.2806L12.8459 32.0032C12.7261 33.13 12.2988 34.2021 11.6106 35.1025L21.8974 37.8571C22.6084 38.0476 23.3572 38.0476 24.0682 37.8571C24.7794 37.6667 25.4277 37.2927 25.9483 36.7724L36.796 25.9316C37.3166 25.4113 37.6907 24.7634 37.8813 24.0526C38.0719 23.3421 38.0719 22.5938 37.8813 21.8832L35.021 11.218C34.139 11.9375 33.0755 12.3996 31.9476 12.5534Z" fill="url(#paint1_linear_4_850)"/>
<path d="M3.14653 27.8149C2.44986 28.511 1.97542 29.3982 1.78321 30.3638C1.591 31.3295 1.68964 32.3306 2.06668 33.2403C2.4437 34.1497 3.08218 34.9273 3.90135 35.4744C4.72055 36.0213 5.68363 36.3134 6.66887 36.3134C7.65409 36.3134 8.6172 36.0213 9.43638 35.4744C10.2556 34.9273 10.8941 34.1497 11.2711 33.2403C11.6481 32.3306 11.7467 31.3295 11.5545 30.3638C11.3623 29.3982 10.8879 28.511 10.1912 27.8149C9.2563 26.8827 7.98955 26.3591 6.66887 26.3591C5.3482 26.3591 4.08144 26.8827 3.14653 27.8149Z" fill="url(#paint2_linear_4_850)"/>
<path d="M27.5747 2.88794C26.8781 3.58416 26.4035 4.47119 26.2115 5.43689C26.0192 6.40257 26.1178 7.40354 26.4949 8.31321C26.872 9.22286 27.5103 10.0004 28.3294 10.5474C29.1487 11.0944 30.1118 11.3864 31.0969 11.3864C32.0823 11.3864 33.0454 11.0944 33.8647 10.5474C34.6837 10.0004 35.3221 9.22286 35.6992 8.31321C36.0763 7.40354 36.1749 6.40257 35.9826 5.43689C35.7906 4.47119 35.316 3.58416 34.6194 2.88794C33.6846 1.95572 32.4177 1.43218 31.0969 1.43218C29.7764 1.43218 28.5095 1.95572 27.5747 2.88794Z" fill="url(#paint3_linear_4_850)"/>
<path d="M21.936 32.1962C21.7359 32.1962 21.5368 32.17 21.3436 32.1182L13.559 30.0336C13.2994 28.6483 12.627 27.3737 11.6298 26.3773C10.6326 25.3808 9.35732 24.7086 7.97119 24.4493L5.88541 16.6702C5.78201 16.2822 5.7823 15.8738 5.8863 15.486C5.9903 15.0981 6.19434 14.7443 6.47802 14.46L14.468 6.47476C14.7522 6.1907 15.1063 5.98644 15.4945 5.88246C15.8828 5.77851 16.2916 5.77853 16.6798 5.88253L24.2462 7.90867C24.5463 9.28534 25.2554 10.5393 26.2808 11.5064C27.3062 12.4734 28.5999 13.1085 29.9924 13.3283L32.1376 21.331C32.2409 21.7191 32.2407 22.1275 32.1366 22.5153C32.0326 22.9032 31.8286 23.2569 31.5448 23.5414L23.5548 31.5264C23.3427 31.7394 23.0902 31.9084 22.8124 32.0232C22.5346 32.1382 22.2367 32.197 21.936 32.1962Z" fill="url(#paint4_linear_4_850)"/>
<defs>
<linearGradient id="paint0_linear_4_850" x1="3.42214" y1="34.58" x2="34.5817" y2="2.64046" gradientUnits="userSpaceOnUse">
<stop stop-color="#4776E6"/>
<stop offset="1" stop-color="#8E54E9"/>
</linearGradient>
<linearGradient id="paint1_linear_4_850" x1="3.42214" y1="34.58" x2="34.5817" y2="2.64046" gradientUnits="userSpaceOnUse">
<stop stop-color="#4776E6"/>
<stop offset="1" stop-color="#8E54E9"/>
</linearGradient>
<linearGradient id="paint2_linear_4_850" x1="3.42214" y1="34.58" x2="34.5817" y2="2.64046" gradientUnits="userSpaceOnUse">
<stop stop-color="#4776E6"/>
<stop offset="1" stop-color="#8E54E9"/>
</linearGradient>
<linearGradient id="paint3_linear_4_850" x1="3.42214" y1="34.58" x2="34.5817" y2="2.64046" gradientUnits="userSpaceOnUse">
<stop stop-color="#4776E6"/>
<stop offset="1" stop-color="#8E54E9"/>
</linearGradient>
<linearGradient id="paint4_linear_4_850" x1="3.42214" y1="34.58" x2="34.5817" y2="2.64046" gradientUnits="userSpaceOnUse">
<stop stop-color="#4776E6"/>
<stop offset="1" stop-color="#8E54E9"/>
</linearGradient>
</defs>
</svg>
